<svg width="33" height="26" viewBox="0 0 33 26" fill="none" xmlns="http://www.w3.org/2000/svg">
<path d="M27.092 2.82737C25.017 1.87511 22.8275 1.19546 20.578 0.805375C20.5576 0.801943 20.5367 0.804907 20.518 0.81386C20.4994 0.822814 20.484 0.837317 20.474 0.855375C20.192 1.35537 19.88 2.00937 19.662 2.52137C17.2372 2.15339 14.7708 2.15339 12.346 2.52137C12.1028 1.95101 11.8277 1.3948 11.522 0.855375C11.5117 0.837515 11.4963 0.823179 11.4777 0.814254C11.4592 0.805329 11.4383 0.802234 11.418 0.805375C9.16799 1.19337 6.97799 1.87337 4.90399 2.82737C4.88624 2.83415 4.87139 2.84687 4.86199 2.86337C0.713986 9.06137 -0.424014 15.1074 0.133986 21.0774C0.135986 21.1054 0.153986 21.1334 0.175986 21.1514C2.59143 22.9406 5.29317 24.3067 8.16599 25.1914C8.18627 25.1978 8.20806 25.1975 8.22821 25.1907C8.24835 25.1839 8.26578 25.1708 8.27799 25.1534C8.89399 24.3134 9.44199 23.4274 9.91399 22.4954C9.92382 22.4762 9.92719 22.4543 9.92359 22.4331C9.91998 22.4118 9.9096 22.3923 9.89399 22.3774C9.88365 22.3676 9.87139 22.3601 9.85799 22.3554C8.99631 22.0242 8.16178 21.6263 7.36199 21.1654C7.33965 21.1527 7.32303 21.1319 7.31559 21.1074C7.30814 21.0828 7.31043 21.0563 7.32199 21.0334C7.32879 21.0185 7.33908 21.0055 7.35199 20.9954C7.51999 20.8694 7.68799 20.7374 7.84799 20.6054C7.86212 20.594 7.87908 20.5867 7.89705 20.5842C7.91501 20.5818 7.93331 20.5842 7.94999 20.5914C13.188 22.9834 18.858 22.9834 24.032 20.5914C24.0493 20.5839 24.0683 20.5812 24.0869 20.5837C24.1056 20.5862 24.1232 20.5937 24.138 20.6054C24.298 20.7374 24.466 20.8694 24.634 20.9954C24.6476 21.0053 24.6585 21.0185 24.6658 21.0337C24.6731 21.0489 24.6765 21.0657 24.6757 21.0825C24.6749 21.0994 24.6699 21.1158 24.6613 21.1302C24.6526 21.1447 24.6405 21.1567 24.626 21.1654C23.828 21.6306 22.9924 22.028 22.128 22.3534C22.1142 22.3584 22.1017 22.3663 22.0913 22.3767C22.0809 22.3871 22.073 22.3996 22.068 22.4134C22.0634 22.4267 22.0615 22.4409 22.0625 22.455C22.0636 22.4691 22.0675 22.4828 22.074 22.4954C22.554 23.4254 23.104 24.3134 23.708 25.1534C23.7202 25.1708 23.7376 25.1839 23.7578 25.1907C23.7779 25.1975 23.7997 25.1978 23.82 25.1914C26.6976 24.3094 29.4037 22.9432 31.822 21.1514C31.8341 21.143 31.8442 21.132 31.8514 21.1192C31.8587 21.1064 31.863 21.0921 31.864 21.0774C32.532 14.1754 30.746 8.17938 27.132 2.86538C27.1283 2.8566 27.1229 2.84868 27.116 2.84214C27.1091 2.83559 27.1009 2.83056 27.092 2.82737V2.82737ZM10.696 17.4414C9.11799 17.4414 7.81999 15.9934 7.81999 14.2174C7.81999 12.4394 9.09399 10.9914 10.696 10.9914C12.31 10.9914 13.596 12.4514 13.572 14.2174C13.572 15.9934 12.298 17.4414 10.696 17.4414ZM21.328 17.4414C19.752 17.4414 18.452 15.9934 18.452 14.2174C18.452 12.4394 19.726 10.9914 21.328 10.9914C22.942 10.9914 24.23 12.4514 24.204 14.2174C24.204 15.9934 22.942 17.4414 21.328 17.4414Z" fill="#002207"/>
</svg>
