<svg width="32" height="24" viewBox="0 0 32 24" fill="none" xmlns="http://www.w3.org/2000/svg">
<path d="M16.104 0.760986H16.282C17.926 0.766986 26.256 0.826987 28.502 1.43099C29.1809 1.61532 29.7997 1.97463 30.2963 2.473C30.7929 2.97137 31.15 3.59135 31.332 4.27099C31.534 5.03099 31.676 6.03699 31.772 7.07499L31.792 7.28299L31.836 7.80299L31.852 8.01099C31.982 9.83899 31.998 11.551 32 11.925V12.075C31.998 12.463 31.98 14.291 31.836 16.195L31.82 16.405L31.802 16.613C31.702 17.757 31.554 18.893 31.332 19.729C31.1506 20.4089 30.7936 21.0292 30.2969 21.5276C29.8002 22.0261 29.1812 22.3852 28.502 22.569C26.182 23.193 17.364 23.237 16.142 23.239H15.858C15.24 23.239 12.684 23.227 10.004 23.135L9.66395 23.123L9.48995 23.115L9.14795 23.101L8.80595 23.087C6.58595 22.989 4.47195 22.831 3.49795 22.567C2.81893 22.3834 2.20008 22.0246 1.7034 21.5265C1.20672 21.0284 0.849647 20.4085 0.667953 19.729C0.445953 18.895 0.297953 17.757 0.197953 16.613L0.181953 16.403L0.165953 16.195C0.0672483 14.8398 0.0125529 13.4817 0.00195312 12.123L0.00195313 11.877C0.00595313 11.447 0.0219531 9.96099 0.129953 8.32099L0.143953 8.11499L0.149953 8.01099L0.165953 7.80299L0.209953 7.28299L0.229953 7.07499C0.325953 6.03699 0.467953 5.02899 0.669953 4.27099C0.85134 3.59108 1.20828 2.97081 1.70498 2.47235C2.20168 1.97389 2.82069 1.61477 3.49995 1.43099C4.47395 1.17099 6.58795 1.01099 8.80795 0.910986L9.14795 0.896986L9.49195 0.884987L9.66395 0.878987L10.006 0.864987C11.9094 0.803736 13.8136 0.769732 15.718 0.762986H16.104V0.760986ZM12.802 7.18099V16.817L21.116 12.001L12.802 7.18099Z" fill="#002207"/>
</svg>
